<svg width="25" height="25" viewBox="0 0 25 25" fill="none" xmlns="http://www.w3.org/2000/svg">
<path d="M8.99498 14.8316L11.7747 8.4292H12.7073V10.2405L10.7346 14.8316H12.2052V14.0067C12.2052 13.8058 12.5399 13.7915 12.7073 13.8094V16.3381C12.2482 16.3381 12.1813 16.1827 12.2052 16.105V15.3876H10.4656L6.16141 25.0002H6L7.09397 21.6824C7.09397 21.6824 6.12554 21.3058 6.44835 20.4988C6.77116 19.6918 8.70803 15.3876 8.70803 15.3876H6.44835V14.8316H8.99498Z" fill="#333333"/>
<path d="M16.2403 14.8316L13.4605 8.4292H12.528V10.2405L14.5007 14.8316H13.0301V14.0067C13.0301 13.8058 12.6954 13.7915 12.528 13.8094V16.3381C12.9871 16.3381 13.054 16.1827 13.0301 16.105V15.3876H14.7697L19.0739 25.0002H19.2353L18.1413 21.6824C18.1413 21.6824 19.1098 21.3058 18.7869 20.4988C18.4641 19.6918 16.5273 15.3876 16.5273 15.3876H18.7869V14.8316H16.2403Z" fill="#333333"/>
<path fill-rule="evenodd" clip-rule="evenodd" d="M12.6355 7.49641C13.6854 7.49641 14.5365 6.6453 14.5365 5.59541C14.5365 4.54551 13.6854 3.6944 12.6355 3.6944C11.5856 3.6944 10.7345 4.54551 10.7345 5.59541C10.7345 6.6453 11.5856 7.49641 12.6355 7.49641ZM12.6355 8.53658C14.2599 8.53658 15.5767 7.21978 15.5767 5.59541C15.5767 3.97104 14.2599 2.65423 12.6355 2.65423C11.0111 2.65423 9.69434 3.97104 9.69434 5.59541C9.69434 7.21978 11.0111 8.53658 12.6355 8.53658Z" fill="#333333"/>
<path d="M12.0975 0H13.1735V2.83357H12.0975V0Z" fill="#333333"/>
</svg>
